<?xml version="1.0" encoding="UTF-8" standalone="no"?>
<svg
   xmlns:dc="http://purl.org/dc/elements/1.1/"
   xmlns:cc="http://creativecommons.org/ns#"
   xmlns:rdf="http://www.w3.org/1999/02/22-rdf-syntax-ns#"
   xmlns:svg="http://www.w3.org/2000/svg"
   xmlns="http://www.w3.org/2000/svg"
   xmlns:sodipodi="http://sodipodi.sourceforge.net/DTD/sodipodi-0.dtd"
   xmlns:inkscape="http://www.inkscape.org/namespaces/inkscape"
   version="1.1"
   x="0px"
   y="0px"
   viewBox="0 0 100 125"
   style="enable-background:new 0 0 100 100;"
   xml:space="preserve"
   id="svg4680"
   sodipodi:docname="bamboo.svg"
   inkscape:version="0.92.3 (2405546, 2018-03-11)"><metadata
     id="metadata4686"><rdf:RDF><cc:Work
         rdf:about=""><dc:format>image/svg+xml</dc:format><dc:type
           rdf:resource="http://purl.org/dc/dcmitype/StillImage" /><dc:title></dc:title></cc:Work></rdf:RDF></metadata><defs
     id="defs4684" /><sodipodi:namedview
     pagecolor="#ffffff"
     bordercolor="#666666"
     borderopacity="1"
     objecttolerance="10"
     gridtolerance="10"
     guidetolerance="10"
     inkscape:pageopacity="0"
     inkscape:pageshadow="2"
     inkscape:window-width="1853"
     inkscape:window-height="1025"
     id="namedview4682"
     showgrid="false"
     inkscape:zoom="6.88"
     inkscape:cx="50"
     inkscape:cy="79.94186"
     inkscape:window-x="67"
     inkscape:window-y="27"
     inkscape:window-maximized="1"
     inkscape:current-layer="svg4680" /><path
     d="m 70.5,11.6 c -1,-0.2 -1.9,0.3 -2.5,0 0.4,3.8 0.2,7.4 -0.4,11 0.8,0.2 2.1,-0.4 3.1,0 -0.5,-2.6 -0.3,-7.1 -0.2,-11 z"
     id="path4622"
     inkscape:connector-curvature="0"
     style="fill:#aad400;stroke:#000000;stroke-width:0.18897638;stroke-miterlimit:4;stroke-dasharray:none" /><path
     d="m 70.7,23 c -1,-0.6 -2.4,0.3 -3.1,-0.1 0.6,6.3 0.9,12.9 0.3,19.4 -0.3,3 -0.2,4.1 -0.1,5 0.1,0.1 0.6,0 1,-0.1 0.6,-0.1 0.7,-0.2 1.5,0.1 0.4,-1.8 -0.1,-3.4 -0.1,-5.1 0.1,-5.6 -0.2,-10.3 0.3,-14.2 0.2,-1.9 0.1,-3.4 0.2,-5 z"
     id="path4624"
     inkscape:connector-curvature="0"
     style="fill:#aad400;stroke:#000000;stroke-width:0.18897638;stroke-miterlimit:4;stroke-dasharray:none" /><path
     d="m 70.4,47.8 c -0.5,-0.5 -1,-0.1 -1.7,-0.1 -0.5,0.1 -0.8,-0.1 -0.9,0 -0.1,0.9 0.1,1.7 0,2.6 -0.2,4.2 -0.3,8.2 0.1,12.2 0.8,-0.3 1.9,0.2 2.5,0 0,-0.3 -0.1,-0.5 -0.2,-1 -1.5,-7.8 0.8,-10.6 0.2,-13.7 z"
     id="path4626"
     inkscape:connector-curvature="0"
     style="fill:#aad400;stroke:#000000;stroke-width:0.18897638;stroke-miterlimit:4;stroke-dasharray:none" /><path
     d="m 70.6,62.9 c -0.5,0.3 -1.2,0 -1.9,-0.1 -0.1,0 -0.5,0 -0.8,0.1 1,5.8 0.1,11.6 0.1,17.4 0.2,0.1 0.5,0 0.9,-0.1 0.9,-0.2 1.2,-0.1 1.6,0.1 -0.9,-5.8 0,-11.6 0.1,-17.4 z"
     id="path4628"
     inkscape:connector-curvature="0"
     style="fill:#aad400;stroke:#000000;stroke-width:0.18897638;stroke-miterlimit:4;stroke-dasharray:none" /><path
     d="m 70.5,80.8 c -0.6,-0.5 -1,-0.5 -1.6,-0.2 -0.5,0.2 -0.7,-0.1 -0.9,0 0.6,3.5 0.5,7.5 0.1,11.7 0.1,0 0.3,0 0.5,-0.1 0.6,-0.2 1.3,0 1.9,0.1 -0.4,-3.7 -0.4,-7.5 0,-11.5 z"
     id="path4630"
     inkscape:connector-curvature="0"
     style="fill:#aad400;stroke:#000000;stroke-width:0.18897638;stroke-miterlimit:4;stroke-dasharray:none" /><path
     d="M 43.2,25.3"
     id="path4632"
     inkscape:connector-curvature="0"
     style="fill:#aad400;stroke:#000000;stroke-width:0.18897638;stroke-miterlimit:4;stroke-dasharray:none" /><path
     d="m 66.1,11.4 c -1.7,4.4 -0.7,5.9 -4.6,9.1 -4.9,4 -3.4,0.1 4.6,-9.1 z"
     id="path4634"
     inkscape:connector-curvature="0"
     style="fill:#aad400;stroke:#000000;stroke-width:0.18897638;stroke-miterlimit:4;stroke-dasharray:none" /><path
     d="m 54.7,17 c 3.3,4.8 3.9,7.1 4.8,10.3 0.8,3.1 0.5,7.9 0.2,11.9 -0.6,7.1 4.3,12.9 8.7,20.2 C 51.5,36.3 66.5,35.2 54.7,17 Z"
     id="path4636"
     inkscape:connector-curvature="0"
     style="fill:#aad400;stroke:#000000;stroke-width:0.18897638;stroke-miterlimit:4;stroke-dasharray:none" /><path
     d="M 65.8,35.4"
     id="path4638"
     inkscape:connector-curvature="0"
     style="fill:#aad400;stroke:#000000;stroke-width:0.18897638;stroke-miterlimit:4;stroke-dasharray:none" /><path
     d="m 58.4,49.2 0.2,0.1 c 1.2,0.6 2.7,2.1 3.9,3.4 0.7,0.8 1.6,1.3 2.5,1.7 l 0.1,-0.2 c -3.5,-1.4 -4.1,-3.5 -6.7,-5 z"
     id="path4640"
     inkscape:connector-curvature="0"
     style="fill:#aad400;stroke:#000000;stroke-width:0.18897638;stroke-miterlimit:4;stroke-dasharray:none" /><path
     d="m 59.5,20.8 c -0.9,1.2 -1.1,1.9 -1.3,2.7 v 0 c 0.2,-0.8 0.6,-1.7 1.3,-2.7 z"
     id="path4642"
     inkscape:connector-curvature="0"
     style="fill:#aad400;stroke:#000000;stroke-width:0.18897638;stroke-miterlimit:4;stroke-dasharray:none" /><path
     d="m 58.4,35.7 c 0.9,1.2 1.1,1.9 1.3,2.7 v 0 c -0.2,-0.8 -0.6,-1.6 -1.3,-2.7 z"
     id="path4644"
     inkscape:connector-curvature="0"
     style="fill:#aad400;stroke:#000000;stroke-width:0.18897638;stroke-miterlimit:4;stroke-dasharray:none" /><path
     d="m 63.2,45.9 c -0.9,1.2 -1.1,1.9 -1.3,2.7 v 0 c 0.2,-0.8 0.6,-1.6 1.3,-2.7 z"
     id="path4646"
     inkscape:connector-curvature="0"
     style="fill:#aad400;stroke:#000000;stroke-width:0.18897638;stroke-miterlimit:4;stroke-dasharray:none" /><path
     d="M 69,79.1 68.9,78.9 C 68,77 67.7,73.8 67.5,71.1 c -0.3,-4.7 -4.2,-8 -7.8,-12.4 10.5,10.5 7,14.2 9.3,20.4 z"
     id="path4648"
     inkscape:connector-curvature="0"
     style="fill:#aad400;stroke:#000000;stroke-width:0.18897638;stroke-miterlimit:4;stroke-dasharray:none" /><path
     d="m 52.3,49.4 c 4.2,1.7 6.4,1.9 8.8,2 v -0.1 c -2.3,0 -5.1,-0.6 -8.8,-1.9 z"
     id="path4650"
     inkscape:connector-curvature="0"
     style="fill:#aad400;stroke:#000000;stroke-width:0.18897638;stroke-miterlimit:4;stroke-dasharray:none" /><path
     d="m 63.8,59.7 v 0 c -0.1,0.5 -0.5,1 -0.8,1.5 -0.2,0.3 -0.3,0.6 -0.3,0.9 v 0 c 0.3,-1.2 0.8,-1.5 1.1,-2.4 z"
     id="path4652"
     inkscape:connector-curvature="0"
     style="fill:#aad400;stroke:#000000;stroke-width:0.18897638;stroke-miterlimit:4;stroke-dasharray:none" /><path
     d="M 39.4,6.1"
     id="path4654"
     inkscape:connector-curvature="0"
     style="fill:#aad400;stroke:#000000;stroke-width:0.18897638;stroke-miterlimit:4;stroke-dasharray:none" /><path
     d="M 51.1,52.9"
     id="path4656"
     inkscape:connector-curvature="0"
     style="fill:#aad400;stroke:#000000;stroke-width:0.18897638;stroke-miterlimit:4;stroke-dasharray:none" /><path
     d="m 53.7,23.5 c 1.3,1.6 1,2.3 3,3.1 2.6,1 1.5,-0.4 -3,-3.1 z"
     id="path4658"
     inkscape:connector-curvature="0"
     style="fill:#aad400;stroke:#000000;stroke-width:0.18897638;stroke-miterlimit:4;stroke-dasharray:none" /><path
     d="m 57.9,26.7 c 1.1,1 1.5,1.6 1.9,2.3 v 0 c -0.5,-0.6 -1,-1.4 -1.9,-2.3 z"
     id="path4660"
     inkscape:connector-curvature="0"
     style="fill:#aad400;stroke:#000000;stroke-width:0.18897638;stroke-miterlimit:4;stroke-dasharray:none" /><path
     d="M 49.2,45"
     id="path4662"
     inkscape:connector-curvature="0"
     style="fill:#aad400;stroke:#000000;stroke-width:0.18897638;stroke-miterlimit:4;stroke-dasharray:none" /><path
     d="m 49.4,34.3 c 2.6,4 1.9,5.7 6.3,8 5.7,2.9 3.4,-0.6 -6.3,-8 z"
     id="path4664"
     inkscape:connector-curvature="0"
     style="fill:#aad400;stroke:#000000;stroke-width:0.18897638;stroke-miterlimit:4;stroke-dasharray:none" /><path
     d="m 65.3,56.1 c -0.2,1.5 0.2,2 -0.8,3.3 -1.4,1.6 -1.1,0.2 0.8,-3.3 z"
     id="path4666"
     inkscape:connector-curvature="0"
     style="fill:#aad400;stroke:#000000;stroke-width:0.18897638;stroke-miterlimit:4;stroke-dasharray:none" /><path
     d="m 58.3,42.8 c 1.2,0.9 1.7,1.4 2.1,2.1 v 0 C 60,44.3 59.3,43.6 58.3,42.8 Z"
     id="path4668"
     inkscape:connector-curvature="0"
     style="fill:#aad400;stroke:#000000;stroke-width:0.18897638;stroke-miterlimit:4;stroke-dasharray:none" /><path
     d="m 54.1,48.6 c 1.2,0.9 1.7,1.4 2.1,2.1 v 0 c -0.4,-0.6 -1.1,-1.3 -2.1,-2.1 z"
     id="path4670"
     inkscape:connector-curvature="0"
     style="fill:#aad400;stroke:#000000;stroke-width:0.18897638;stroke-miterlimit:4;stroke-dasharray:none" /><path
     d="M 64.1,23.8"
     id="path4672"
     inkscape:connector-curvature="0"
     style="fill:#aad400;stroke:#000000;stroke-width:0.18897638;stroke-miterlimit:4;stroke-dasharray:none" /><path
     d="m 61.2,28.6 c -0.9,1.2 -1.1,1.9 -1.3,2.7 v 0 c 0.3,-0.7 0.6,-1.6 1.3,-2.7 z"
     id="path4674"
     inkscape:connector-curvature="0"
     style="fill:#aad400;stroke:#000000;stroke-width:0.18897638;stroke-miterlimit:4;stroke-dasharray:none" /></svg>